<svg width="335" height="48" viewBox="0 0 335 48" fill="none" xmlns="http://www.w3.org/2000/svg">
<g filter="url(#filter0_d_1_22)">
<path d="M6.896 25.892L6.86 25.064C6.284 24.992 5.564 24.848 4.7 24.632C4.34 24.296 4.16 23.804 4.16 23.156C4.16 22.94 4.196 22.832 4.268 22.832C4.364 22.832 4.52 22.856 4.736 22.904C5.24 23.072 5.936 23.204 6.824 23.3C6.728 21.476 6.524 19.64 6.212 17.792C5.924 15.92 5.66 14.504 5.42 13.544L5.06 12.104L8.192 10.628L9.128 11.204C9.488 13.34 9.668 15.452 9.668 17.54C9.668 19.628 9.608 21.572 9.488 23.372C12.728 23.228 15.416 22.676 17.552 21.716C17.528 21.212 17.516 20.072 17.516 18.296C17.516 16.496 17.744 14.132 18.2 11.204L19.136 10.628L22.196 12.104C21.092 14.936 20.54 19.292 20.54 25.172C20.54 29.54 20.72 33.188 21.08 36.116C21.08 36.188 20.984 36.224 20.792 36.224C20.168 36.224 19.7 36.044 19.388 35.684C18.524 31.292 17.972 27.56 17.732 24.488C15.188 25.016 12.848 25.28 10.712 25.28H9.344C9.08 28.064 8.612 31.472 7.94 35.504C7.772 35.696 7.496 35.852 7.112 35.972C6.752 36.116 6.44 36.188 6.176 36.188C5.936 36.188 5.816 36.128 5.816 36.008L5.924 35.612C6.572 33.236 6.896 29.996 6.896 25.892ZM37.7238 21.752C37.4598 22.856 36.9318 23.852 36.1398 24.74C35.3478 25.628 34.4478 26.336 33.4398 26.864C31.5918 27.824 29.9718 28.436 28.5798 28.7C28.6758 29.9 28.9878 30.788 29.5158 31.364C30.0438 31.94 30.6798 32.228 31.4238 32.228C33.5358 32.228 35.4438 30.452 37.1478 26.9C37.1718 26.756 37.2918 26.684 37.5078 26.684C37.7238 26.684 38.0478 26.852 38.4798 27.188C37.4478 29.684 36.1758 31.748 34.6638 33.38C33.1758 34.988 31.6878 35.792 30.1998 35.792C28.7118 35.792 27.5478 35.252 26.7078 34.172C25.8918 33.092 25.4838 31.64 25.4838 29.816C25.4838 27.296 26.1678 24.968 27.5358 22.832C28.2798 21.68 29.3238 20.672 30.6678 19.808C32.0358 18.92 33.6558 18.26 35.5278 17.828C36.9918 18.332 37.7238 19.64 37.7238 21.752ZM33.5118 20.672C32.5038 20.672 31.4598 21.26 30.3798 22.436C29.2998 23.588 28.6998 25.196 28.5798 27.26C30.5718 26.732 32.0958 25.964 33.1518 24.956C34.2318 23.924 34.7718 22.916 34.7718 21.932C34.7718 21.572 34.6638 21.272 34.4478 21.032C34.2318 20.792 33.9198 20.672 33.5118 20.672ZM42.6839 9.368L45.5639 10.736C45.8279 12.512 45.9599 14.444 45.9599 16.532C45.9599 18.596 45.8399 20.804 45.5999 23.156C45.0959 27.908 44.3759 32.024 43.4399 35.504C43.2959 35.672 43.0439 35.816 42.6839 35.936C42.3239 36.056 42.0359 36.116 41.8199 36.116C41.6039 36.116 41.4959 36.056 41.4959 35.936C42.6239 31.136 43.1879 26.396 43.1879 21.716C43.1879 17.036 42.7199 13.112 41.7839 9.944L42.6839 9.368ZM51.4027 9.368L54.2827 10.736C54.5467 12.512 54.6787 14.444 54.6787 16.532C54.6787 18.596 54.5587 20.804 54.3187 23.156C53.8147 27.908 53.0947 32.024 52.1587 35.504C52.0147 35.672 51.7627 35.816 51.4027 35.936C51.0427 36.056 50.7547 36.116 50.5387 36.116C50.3227 36.116 50.2147 36.056 50.2147 35.936C51.3427 31.136 51.9067 26.396 51.9067 21.716C51.9067 17.036 51.4387 13.112 50.5027 9.944L51.4027 9.368ZM71.8934 18.548L70.1654 20.528C71.5094 22.16 72.1814 24.212 72.1814 26.684C72.1814 30.164 71.0654 32.84 68.8334 34.712C67.6574 35.696 66.2054 36.188 64.4774 36.188C62.7734 36.188 61.3094 35.504 60.0854 34.136C58.8854 32.768 58.2854 30.884 58.2854 28.484C58.2854 25.964 59.2214 23.672 61.0934 21.608C62.0774 20.528 63.4574 19.628 65.2334 18.908C67.0334 18.188 69.1214 17.732 71.4974 17.54L71.8934 18.548ZM65.0174 32.912C66.4814 32.912 67.6934 32.288 68.6534 31.04C69.6374 29.792 70.1294 28.496 70.1294 27.152C70.1294 24.248 69.4694 22.004 68.1494 20.42C66.3014 20.732 64.7414 21.56 63.4694 22.904C62.1974 24.248 61.5614 25.772 61.5614 27.476C61.5614 29.18 61.8614 30.512 62.4614 31.472C63.0854 32.432 63.9374 32.912 65.0174 32.912ZM108.5 17.936L108.428 18.152C107.084 20.552 105.872 23.24 104.792 26.216C103.736 29.192 103.028 32.036 102.668 34.748L100.256 36.008C99.6555 36.008 99.1995 35.84 98.8875 35.504C97.3995 31.952 96.3915 28.136 95.8635 24.056C94.3275 27.896 93.3555 31.46 92.9475 34.748L90.5355 36.008C89.9355 36.008 89.4795 35.84 89.1675 35.504C88.3275 33.536 87.5715 31.148 86.8995 28.34C86.2515 25.508 85.9275 22.928 85.9275 20.6C85.9275 19.592 85.9875 18.776 86.1075 18.152L87.0075 17.54L89.8875 18.98C89.4555 20.78 89.2395 22.808 89.2395 25.064C89.2395 27.296 89.5515 30.08 90.1755 33.416C90.7035 31.424 91.4715 29.264 92.4795 26.936C93.4875 24.608 94.5435 22.496 95.6475 20.6C95.6475 19.592 95.7075 18.776 95.8275 18.152L96.7275 17.54L99.6075 18.98C99.1755 20.78 98.9595 22.748 98.9595 24.884C98.9595 26.996 99.2715 29.828 99.8955 33.38C100.568 30.932 101.564 28.28 102.884 25.424C104.228 22.544 105.548 20.168 106.844 18.296C107.276 17.96 107.78 17.792 108.356 17.792C108.452 17.792 108.5 17.84 108.5 17.936ZM122.835 18.548L121.107 20.528C122.451 22.16 123.123 24.212 123.123 26.684C123.123 30.164 122.007 32.84 119.775 34.712C118.599 35.696 117.147 36.188 115.419 36.188C113.715 36.188 112.251 35.504 111.027 34.136C109.827 32.768 109.227 30.884 109.227 28.484C109.227 25.964 110.163 23.672 112.035 21.608C113.019 20.528 114.399 19.628 116.175 18.908C117.975 18.188 120.063 17.732 122.439 17.54L122.835 18.548ZM115.959 32.912C117.423 32.912 118.635 32.288 119.595 31.04C120.579 29.792 121.071 28.496 121.071 27.152C121.071 24.248 120.411 22.004 119.091 20.42C117.243 20.732 115.683 21.56 114.411 22.904C113.139 24.248 112.503 25.772 112.503 27.476C112.503 29.18 112.803 30.512 113.403 31.472C114.027 32.432 114.879 32.912 115.959 32.912ZM137.579 18.296L136.715 22.436C136.403 22.34 135.983 22.292 135.455 22.292C134.927 22.292 134.423 22.46 133.943 22.796C133.463 23.132 133.019 23.708 132.611 24.524C132.203 25.34 131.855 26.192 131.567 27.08C131.279 27.968 130.991 28.916 130.703 29.924C130.415 30.932 130.175 31.772 129.983 32.444C129.815 33.092 129.467 34.124 128.939 35.54C128.627 35.9 128.183 36.08 127.607 36.08C127.415 36.08 127.319 36.032 127.319 35.936C127.943 32.888 128.255 29.864 128.255 26.864C128.255 23.84 127.883 20.936 127.139 18.152L128.003 17.54L130.919 19.088C131.087 20.816 131.171 22.34 131.171 23.66V24.164C132.659 20.684 134.543 18.5 136.823 17.612L137.579 18.296ZM140.067 9.368L142.947 10.736C143.211 12.512 143.343 14.444 143.343 16.532C143.343 18.596 143.223 20.804 142.983 23.156C142.479 27.908 141.759 32.024 140.823 35.504C140.679 35.672 140.427 35.816 140.067 35.936C139.707 36.056 139.419 36.116 139.203 36.116C138.987 36.116 138.879 36.056 138.879 35.936C140.007 31.136 140.571 26.396 140.571 21.716C140.571 17.036 140.103 13.112 139.167 9.944L140.067 9.368ZM156.562 10.736L159.442 9.368L160.342 9.944C159.406 13.112 158.938 16.988 158.938 21.572C158.938 26.132 159.478 30.92 160.558 35.936C160.558 36.056 160.462 36.116 160.27 36.116C159.646 36.116 159.154 35.912 158.794 35.504C158.218 33.272 157.666 30.5 157.138 27.188C156.154 29.708 154.942 31.772 153.502 33.38C152.062 34.988 150.694 35.792 149.398 35.792C148.366 35.792 147.586 35.432 147.058 34.712C146.554 33.968 146.302 32.9 146.302 31.508C146.302 30.116 146.602 28.616 147.202 27.008C147.826 25.4 148.918 23.756 150.478 22.076C152.038 20.372 153.958 19.016 156.238 18.008C156.214 17.456 156.202 16.52 156.202 15.2C156.202 13.856 156.322 12.368 156.562 10.736ZM156.706 24.056C156.514 22.232 156.394 20.864 156.346 19.952C154.834 20.624 153.55 21.512 152.494 22.616C150.622 24.608 149.686 26.672 149.686 28.808C149.686 30.584 150.286 31.472 151.486 31.472C152.278 31.472 153.154 30.824 154.114 29.528C155.098 28.232 155.962 26.408 156.706 24.056ZM165.597 26.936C165.597 20.24 166.173 14.6 167.325 10.016L168.297 9.548L171.213 11.276C170.397 12.932 169.617 15.416 168.873 18.728C168.153 22.04 167.685 25.136 167.469 28.016C167.109 28.304 166.665 28.448 166.137 28.448C165.777 28.448 165.597 27.944 165.597 26.936ZM167.829 30.644C166.653 30.812 165.741 31.172 165.093 31.724C164.445 32.252 164.121 32.876 164.121 33.596C164.121 34.292 164.313 34.868 164.697 35.324C165.081 35.78 165.621 36.008 166.317 36.008C167.013 36.008 167.649 35.756 168.225 35.252C168.801 34.772 169.089 34.052 169.089 33.092C169.089 32.108 168.669 31.292 167.829 30.644ZM186.481 35.612C186.337 35.756 186.073 35.888 185.689 36.008C185.329 36.128 185.041 36.188 184.825 36.188C184.633 36.188 184.537 36.14 184.537 36.044C184.993 32.948 185.221 29.78 185.221 26.54C185.221 20.78 184.873 15.692 184.177 11.276L185.113 10.628L188.353 12.284C188.233 16.148 188.005 20.444 187.669 25.172C187.333 29.876 186.937 33.356 186.481 35.612ZM194.824 10.88C195.52 10.88 196.072 11.132 196.48 11.636C196.888 12.14 197.092 12.824 197.092 13.688C197.092 14.552 196.912 15.392 196.552 16.208C196.216 17 195.796 17.648 195.292 18.152C194.812 18.656 194.296 19.088 193.744 19.448C192.736 20.144 192.028 20.492 191.62 20.492C191.524 20.492 191.404 20.36 191.26 20.096C191.116 19.808 191.044 19.568 191.044 19.376C192.748 18.584 193.66 17.372 193.78 15.74L192.232 13.508C192.232 12.692 192.484 12.056 192.988 11.6C193.516 11.12 194.128 10.88 194.824 10.88ZM201.08 35.324C201.656 32.3 201.944 29.552 201.944 27.08C201.944 24.608 201.848 22.868 201.656 21.86C201.488 20.828 201.296 19.964 201.08 19.268C200.888 18.572 200.78 18.176 200.756 18.08L201.62 17.54L204.536 18.944C204.728 20.6 204.824 21.848 204.824 22.688C204.824 23.504 204.824 23.996 204.824 24.164C205.76 22.292 206.792 20.804 207.92 19.7C209.072 18.572 210.14 18.008 211.124 18.008C212.108 18.008 212.84 18.38 213.32 19.124C213.8 19.844 214.04 20.756 214.04 21.86C214.04 22.964 214.004 23.984 213.932 24.92C214.868 22.856 215.948 21.188 217.172 19.916C218.396 18.644 219.512 18.008 220.52 18.008C221.552 18.008 222.308 18.38 222.788 19.124C223.268 19.844 223.508 20.768 223.508 21.896C223.508 23 223.46 24.164 223.364 25.388C223.268 26.588 223.16 27.62 223.04 28.484C222.944 29.324 222.788 30.488 222.572 31.976C222.38 33.44 222.236 34.544 222.14 35.288C221.852 35.624 221.336 35.792 220.592 35.792C220.448 35.792 220.376 35.756 220.376 35.684C220.688 32.252 220.844 29.684 220.844 27.98C220.844 24.212 220.172 22.328 218.828 22.328C217.796 22.328 216.74 23.204 215.66 24.956C214.604 26.708 213.728 29.18 213.032 32.372C212.936 33.02 212.816 33.992 212.672 35.288C212.384 35.624 211.856 35.792 211.088 35.792C210.968 35.792 210.908 35.756 210.908 35.684C211.22 32.252 211.376 29.684 211.376 27.98C211.376 24.212 210.704 22.328 209.36 22.328C208.496 22.328 207.596 22.976 206.66 24.272C205.724 25.544 204.896 27.38 204.176 29.78C203.864 31.436 203.372 33.164 202.7 34.964C202.364 35.3 202.004 35.468 201.62 35.468C201.26 35.468 201.08 35.42 201.08 35.324ZM250.664 21.788L249.584 24.272C248.192 24.536 246.86 24.668 245.588 24.668C244.316 24.668 243.212 24.632 242.276 24.56C242.252 24.896 242.24 25.376 242.24 26C242.24 28.352 242.576 30.296 243.248 31.832C243.944 33.344 244.976 34.1 246.344 34.1C247.736 34.1 248.852 33.596 249.692 32.588C250.532 31.556 251.276 29.9 251.924 27.62C251.972 27.428 252.056 27.332 252.176 27.332C252.512 27.332 252.884 27.5 253.292 27.836C252.188 33.404 249.68 36.188 245.768 36.188C241.616 36.188 239.468 32.204 239.324 24.236L238.604 24.092C238.388 24.02 238.172 23.78 237.956 23.372C237.764 22.94 237.656 22.604 237.632 22.364L237.812 22.148C238.46 22.244 238.976 22.304 239.36 22.328C239.48 18.632 239.696 15.872 240.008 14.048L239.144 13.832C238.928 13.688 238.748 13.46 238.604 13.148C238.484 12.812 238.424 12.572 238.424 12.428C238.424 12.284 238.448 12.212 238.496 12.212L241.052 12.428L243.68 10.628L244.616 11.204L244.184 12.464C247.832 12.416 250.82 11.804 253.148 10.628L253.76 11.564L252.572 14.66C250.892 14.876 249.296 14.984 247.784 14.984C246.272 14.984 244.892 14.9 243.644 14.732C243.068 17.18 242.66 19.748 242.42 22.436H243.248C245.84 22.436 248.204 22.016 250.34 21.176L250.664 21.788ZM267.44 18.008L266.288 21.212C265.184 20.492 264.092 20.132 263.012 20.132C261.236 20.132 260.348 20.816 260.348 22.184C260.348 23.12 261.092 24.212 262.58 25.46C263.228 25.988 263.864 26.54 264.488 27.116C265.976 28.484 266.72 29.864 266.72 31.256C266.72 32.336 266.312 33.368 265.496 34.352C265.04 34.88 264.296 35.3 263.264 35.612C262.256 35.948 261.092 36.116 259.772 36.116C258.452 36.116 257.264 35.948 256.208 35.612C256.088 35.516 255.944 35.3 255.776 34.964C255.632 34.604 255.56 34.352 255.56 34.208C255.56 34.064 255.584 33.992 255.632 33.992C255.704 33.992 255.884 34.028 256.172 34.1C256.892 34.292 257.804 34.388 258.908 34.388C260.012 34.388 260.936 34.148 261.68 33.668C262.448 33.188 262.832 32.576 262.832 31.832C262.832 31.088 262.52 30.356 261.896 29.636C261.296 28.916 260.624 28.268 259.88 27.692C259.16 27.116 258.488 26.408 257.864 25.568C257.264 24.704 256.964 23.84 256.964 22.976C256.964 22.208 257.216 21.524 257.72 20.924C258.248 20.3 258.848 19.784 259.52 19.376C261.152 18.416 263.528 17.732 266.648 17.324L267.44 18.008ZM280.045 18.548L278.965 21.068C277.789 21.308 276.589 21.44 275.365 21.464C274.909 27.848 274.309 32.456 273.565 35.288C273.277 35.624 272.773 35.792 272.053 35.792C271.885 35.792 271.801 35.756 271.801 35.684C272.329 32.276 272.593 28.964 272.593 25.748C272.593 24.572 272.557 23.12 272.485 21.392C271.213 21.248 270.217 21.08 269.497 20.888C269.353 20.816 269.197 20.576 269.029 20.168C268.885 19.736 268.801 19.4 268.777 19.16L268.921 18.944C269.857 19.136 271.009 19.232 272.377 19.232C272.233 16.592 272.101 14.816 271.981 13.904L272.845 13.292L275.761 14.84L275.545 19.052C276.817 18.908 278.197 18.548 279.685 17.972L280.045 18.548ZM293.275 21.752C293.011 22.856 292.483 23.852 291.691 24.74C290.899 25.628 289.999 26.336 288.991 26.864C287.143 27.824 285.523 28.436 284.131 28.7C284.227 29.9 284.539 30.788 285.067 31.364C285.595 31.94 286.231 32.228 286.975 32.228C289.087 32.228 290.995 30.452 292.699 26.9C292.723 26.756 292.843 26.684 293.059 26.684C293.275 26.684 293.599 26.852 294.031 27.188C292.999 29.684 291.727 31.748 290.215 33.38C288.727 34.988 287.239 35.792 285.751 35.792C284.263 35.792 283.099 35.252 282.259 34.172C281.443 33.092 281.035 31.64 281.035 29.816C281.035 27.296 281.719 24.968 283.087 22.832C283.831 21.68 284.875 20.672 286.219 19.808C287.587 18.92 289.207 18.26 291.079 17.828C292.543 18.332 293.275 19.64 293.275 21.752ZM289.063 20.672C288.055 20.672 287.011 21.26 285.931 22.436C284.851 23.588 284.251 25.196 284.131 27.26C286.123 26.732 287.647 25.964 288.703 24.956C289.783 23.924 290.323 22.916 290.323 21.932C290.323 21.572 290.215 21.272 289.999 21.032C289.783 20.792 289.471 20.672 289.063 20.672ZM298.235 9.368L301.115 10.736C301.379 12.512 301.511 14.444 301.511 16.532C301.511 18.596 301.391 20.804 301.151 23.156C300.647 27.908 299.927 32.024 298.991 35.504C298.847 35.672 298.595 35.816 298.235 35.936C297.875 36.056 297.587 36.116 297.371 36.116C297.155 36.116 297.047 36.056 297.047 35.936C298.175 31.136 298.739 26.396 298.739 21.716C298.739 17.036 298.271 13.112 297.335 9.944L298.235 9.368ZM315.017 18.512L317.933 17.252L318.797 17.756C318.005 20.084 317.609 22.772 317.609 25.82C317.609 27.116 317.717 28.916 317.933 31.22C318.149 33.524 318.353 35.084 318.545 35.9C318.545 35.972 318.365 36.008 318.005 36.008C317.645 36.008 317.297 35.84 316.961 35.504C316.193 33.728 315.581 31.112 315.125 27.656C314.117 30.056 312.905 32.012 311.489 33.524C310.097 35.036 308.837 35.792 307.709 35.792C305.549 35.792 304.469 34.436 304.469 31.724C304.469 30.164 304.781 28.664 305.405 27.224C306.029 25.784 306.869 24.524 307.925 23.444C310.037 21.308 312.401 19.664 315.017 18.512ZM309.653 31.472C310.421 31.472 311.273 30.86 312.209 29.636C313.169 28.388 314.021 26.636 314.765 24.38C314.741 24.044 314.729 23.396 314.729 22.436C314.729 21.476 314.741 20.768 314.765 20.312C312.701 21.488 311.033 22.748 309.761 24.092C308.489 25.412 307.853 26.972 307.853 28.772C307.853 30.572 308.453 31.472 309.653 31.472Z" fill="#1E191E"/>
</g>
<g filter="url(#filter1_d_1_22)">
<path d="M6.896 22.892L6.86 22.064C6.284 21.992 5.564 21.848 4.7 21.632C4.34 21.296 4.16 20.804 4.16 20.156C4.16 19.94 4.196 19.832 4.268 19.832C4.364 19.832 4.52 19.856 4.736 19.904C5.24 20.072 5.936 20.204 6.824 20.3C6.728 18.476 6.524 16.64 6.212 14.792C5.924 12.92 5.66 11.504 5.42 10.544L5.06 9.104L8.192 7.628L9.128 8.204C9.488 10.34 9.668 12.452 9.668 14.54C9.668 16.628 9.608 18.572 9.488 20.372C12.728 20.228 15.416 19.676 17.552 18.716C17.528 18.212 17.516 17.072 17.516 15.296C17.516 13.496 17.744 11.132 18.2 8.204L19.136 7.628L22.196 9.104C21.092 11.936 20.54 16.292 20.54 22.172C20.54 26.54 20.72 30.188 21.08 33.116C21.08 33.188 20.984 33.224 20.792 33.224C20.168 33.224 19.7 33.044 19.388 32.684C18.524 28.292 17.972 24.56 17.732 21.488C15.188 22.016 12.848 22.28 10.712 22.28H9.344C9.08 25.064 8.612 28.472 7.94 32.504C7.772 32.696 7.496 32.852 7.112 32.972C6.752 33.116 6.44 33.188 6.176 33.188C5.936 33.188 5.816 33.128 5.816 33.008L5.924 32.612C6.572 30.236 6.896 26.996 6.896 22.892ZM37.7238 18.752C37.4598 19.856 36.9318 20.852 36.1398 21.74C35.3478 22.628 34.4478 23.336 33.4398 23.864C31.5918 24.824 29.9718 25.436 28.5798 25.7C28.6758 26.9 28.9878 27.788 29.5158 28.364C30.0438 28.94 30.6798 29.228 31.4238 29.228C33.5358 29.228 35.4438 27.452 37.1478 23.9C37.1718 23.756 37.2918 23.684 37.5078 23.684C37.7238 23.684 38.0478 23.852 38.4798 24.188C37.4478 26.684 36.1758 28.748 34.6638 30.38C33.1758 31.988 31.6878 32.792 30.1998 32.792C28.7118 32.792 27.5478 32.252 26.7078 31.172C25.8918 30.092 25.4838 28.64 25.4838 26.816C25.4838 24.296 26.1678 21.968 27.5358 19.832C28.2798 18.68 29.3238 17.672 30.6678 16.808C32.0358 15.92 33.6558 15.26 35.5278 14.828C36.9918 15.332 37.7238 16.64 37.7238 18.752ZM33.5118 17.672C32.5038 17.672 31.4598 18.26 30.3798 19.436C29.2998 20.588 28.6998 22.196 28.5798 24.26C30.5718 23.732 32.0958 22.964 33.1518 21.956C34.2318 20.924 34.7718 19.916 34.7718 18.932C34.7718 18.572 34.6638 18.272 34.4478 18.032C34.2318 17.792 33.9198 17.672 33.5118 17.672ZM42.6839 6.368L45.5639 7.736C45.8279 9.512 45.9599 11.444 45.9599 13.532C45.9599 15.596 45.8399 17.804 45.5999 20.156C45.0959 24.908 44.3759 29.024 43.4399 32.504C43.2959 32.672 43.0439 32.816 42.6839 32.936C42.3239 33.056 42.0359 33.116 41.8199 33.116C41.6039 33.116 41.4959 33.056 41.4959 32.936C42.6239 28.136 43.1879 23.396 43.1879 18.716C43.1879 14.036 42.7199 10.112 41.7839 6.944L42.6839 6.368ZM51.4027 6.368L54.2827 7.736C54.5467 9.512 54.6787 11.444 54.6787 13.532C54.6787 15.596 54.5587 17.804 54.3187 20.156C53.8147 24.908 53.0947 29.024 52.1587 32.504C52.0147 32.672 51.7627 32.816 51.4027 32.936C51.0427 33.056 50.7547 33.116 50.5387 33.116C50.3227 33.116 50.2147 33.056 50.2147 32.936C51.3427 28.136 51.9067 23.396 51.9067 18.716C51.9067 14.036 51.4387 10.112 50.5027 6.944L51.4027 6.368ZM71.8934 15.548L70.1654 17.528C71.5094 19.16 72.1814 21.212 72.1814 23.684C72.1814 27.164 71.0654 29.84 68.8334 31.712C67.6574 32.696 66.2054 33.188 64.4774 33.188C62.7734 33.188 61.3094 32.504 60.0854 31.136C58.8854 29.768 58.2854 27.884 58.2854 25.484C58.2854 22.964 59.2214 20.672 61.0934 18.608C62.0774 17.528 63.4574 16.628 65.2334 15.908C67.0334 15.188 69.1214 14.732 71.4974 14.54L71.8934 15.548ZM65.0174 29.912C66.4814 29.912 67.6934 29.288 68.6534 28.04C69.6374 26.792 70.1294 25.496 70.1294 24.152C70.1294 21.248 69.4694 19.004 68.1494 17.42C66.3014 17.732 64.7414 18.56 63.4694 19.904C62.1974 21.248 61.5614 22.772 61.5614 24.476C61.5614 26.18 61.8614 27.512 62.4614 28.472C63.0854 29.432 63.9374 29.912 65.0174 29.912ZM108.5 14.936L108.428 15.152C107.084 17.552 105.872 20.24 104.792 23.216C103.736 26.192 103.028 29.036 102.668 31.748L100.256 33.008C99.6555 33.008 99.1995 32.84 98.8875 32.504C97.3995 28.952 96.3915 25.136 95.8635 21.056C94.3275 24.896 93.3555 28.46 92.9475 31.748L90.5355 33.008C89.9355 33.008 89.4795 32.84 89.1675 32.504C88.3275 30.536 87.5715 28.148 86.8995 25.34C86.2515 22.508 85.9275 19.928 85.9275 17.6C85.9275 16.592 85.9875 15.776 86.1075 15.152L87.0075 14.54L89.8875 15.98C89.4555 17.78 89.2395 19.808 89.2395 22.064C89.2395 24.296 89.5515 27.08 90.1755 30.416C90.7035 28.424 91.4715 26.264 92.4795 23.936C93.4875 21.608 94.5435 19.496 95.6475 17.6C95.6475 16.592 95.7075 15.776 95.8275 15.152L96.7275 14.54L99.6075 15.98C99.1755 17.78 98.9595 19.748 98.9595 21.884C98.9595 23.996 99.2715 26.828 99.8955 30.38C100.568 27.932 101.564 25.28 102.884 22.424C104.228 19.544 105.548 17.168 106.844 15.296C107.276 14.96 107.78 14.792 108.356 14.792C108.452 14.792 108.5 14.84 108.5 14.936ZM122.835 15.548L121.107 17.528C122.451 19.16 123.123 21.212 123.123 23.684C123.123 27.164 122.007 29.84 119.775 31.712C118.599 32.696 117.147 33.188 115.419 33.188C113.715 33.188 112.251 32.504 111.027 31.136C109.827 29.768 109.227 27.884 109.227 25.484C109.227 22.964 110.163 20.672 112.035 18.608C113.019 17.528 114.399 16.628 116.175 15.908C117.975 15.188 120.063 14.732 122.439 14.54L122.835 15.548ZM115.959 29.912C117.423 29.912 118.635 29.288 119.595 28.04C120.579 26.792 121.071 25.496 121.071 24.152C121.071 21.248 120.411 19.004 119.091 17.42C117.243 17.732 115.683 18.56 114.411 19.904C113.139 21.248 112.503 22.772 112.503 24.476C112.503 26.18 112.803 27.512 113.403 28.472C114.027 29.432 114.879 29.912 115.959 29.912ZM137.579 15.296L136.715 19.436C136.403 19.34 135.983 19.292 135.455 19.292C134.927 19.292 134.423 19.46 133.943 19.796C133.463 20.132 133.019 20.708 132.611 21.524C132.203 22.34 131.855 23.192 131.567 24.08C131.279 24.968 130.991 25.916 130.703 26.924C130.415 27.932 130.175 28.772 129.983 29.444C129.815 30.092 129.467 31.124 128.939 32.54C128.627 32.9 128.183 33.08 127.607 33.08C127.415 33.08 127.319 33.032 127.319 32.936C127.943 29.888 128.255 26.864 128.255 23.864C128.255 20.84 127.883 17.936 127.139 15.152L128.003 14.54L130.919 16.088C131.087 17.816 131.171 19.34 131.171 20.66V21.164C132.659 17.684 134.543 15.5 136.823 14.612L137.579 15.296ZM140.067 6.368L142.947 7.736C143.211 9.512 143.343 11.444 143.343 13.532C143.343 15.596 143.223 17.804 142.983 20.156C142.479 24.908 141.759 29.024 140.823 32.504C140.679 32.672 140.427 32.816 140.067 32.936C139.707 33.056 139.419 33.116 139.203 33.116C138.987 33.116 138.879 33.056 138.879 32.936C140.007 28.136 140.571 23.396 140.571 18.716C140.571 14.036 140.103 10.112 139.167 6.944L140.067 6.368ZM156.562 7.736L159.442 6.368L160.342 6.944C159.406 10.112 158.938 13.988 158.938 18.572C158.938 23.132 159.478 27.92 160.558 32.936C160.558 33.056 160.462 33.116 160.27 33.116C159.646 33.116 159.154 32.912 158.794 32.504C158.218 30.272 157.666 27.5 157.138 24.188C156.154 26.708 154.942 28.772 153.502 30.38C152.062 31.988 150.694 32.792 149.398 32.792C148.366 32.792 147.586 32.432 147.058 31.712C146.554 30.968 146.302 29.9 146.302 28.508C146.302 27.116 146.602 25.616 147.202 24.008C147.826 22.4 148.918 20.756 150.478 19.076C152.038 17.372 153.958 16.016 156.238 15.008C156.214 14.456 156.202 13.52 156.202 12.2C156.202 10.856 156.322 9.368 156.562 7.736ZM156.706 21.056C156.514 19.232 156.394 17.864 156.346 16.952C154.834 17.624 153.55 18.512 152.494 19.616C150.622 21.608 149.686 23.672 149.686 25.808C149.686 27.584 150.286 28.472 151.486 28.472C152.278 28.472 153.154 27.824 154.114 26.528C155.098 25.232 155.962 23.408 156.706 21.056ZM165.597 23.936C165.597 17.24 166.173 11.6 167.325 7.016L168.297 6.548L171.213 8.276C170.397 9.932 169.617 12.416 168.873 15.728C168.153 19.04 167.685 22.136 167.469 25.016C167.109 25.304 166.665 25.448 166.137 25.448C165.777 25.448 165.597 24.944 165.597 23.936ZM167.829 27.644C166.653 27.812 165.741 28.172 165.093 28.724C164.445 29.252 164.121 29.876 164.121 30.596C164.121 31.292 164.313 31.868 164.697 32.324C165.081 32.78 165.621 33.008 166.317 33.008C167.013 33.008 167.649 32.756 168.225 32.252C168.801 31.772 169.089 31.052 169.089 30.092C169.089 29.108 168.669 28.292 167.829 27.644ZM186.481 32.612C186.337 32.756 186.073 32.888 185.689 33.008C185.329 33.128 185.041 33.188 184.825 33.188C184.633 33.188 184.537 33.14 184.537 33.044C184.993 29.948 185.221 26.78 185.221 23.54C185.221 17.78 184.873 12.692 184.177 8.276L185.113 7.628L188.353 9.284C188.233 13.148 188.005 17.444 187.669 22.172C187.333 26.876 186.937 30.356 186.481 32.612ZM194.824 7.88C195.52 7.88 196.072 8.132 196.48 8.636C196.888 9.14 197.092 9.824 197.092 10.688C197.092 11.552 196.912 12.392 196.552 13.208C196.216 14 195.796 14.648 195.292 15.152C194.812 15.656 194.296 16.088 193.744 16.448C192.736 17.144 192.028 17.492 191.62 17.492C191.524 17.492 191.404 17.36 191.26 17.096C191.116 16.808 191.044 16.568 191.044 16.376C192.748 15.584 193.66 14.372 193.78 12.74L192.232 10.508C192.232 9.692 192.484 9.056 192.988 8.6C193.516 8.12 194.128 7.88 194.824 7.88ZM201.08 32.324C201.656 29.3 201.944 26.552 201.944 24.08C201.944 21.608 201.848 19.868 201.656 18.86C201.488 17.828 201.296 16.964 201.08 16.268C200.888 15.572 200.78 15.176 200.756 15.08L201.62 14.54L204.536 15.944C204.728 17.6 204.824 18.848 204.824 19.688C204.824 20.504 204.824 20.996 204.824 21.164C205.76 19.292 206.792 17.804 207.92 16.7C209.072 15.572 210.14 15.008 211.124 15.008C212.108 15.008 212.84 15.38 213.32 16.124C213.8 16.844 214.04 17.756 214.04 18.86C214.04 19.964 214.004 20.984 213.932 21.92C214.868 19.856 215.948 18.188 217.172 16.916C218.396 15.644 219.512 15.008 220.52 15.008C221.552 15.008 222.308 15.38 222.788 16.124C223.268 16.844 223.508 17.768 223.508 18.896C223.508 20 223.46 21.164 223.364 22.388C223.268 23.588 223.16 24.62 223.04 25.484C222.944 26.324 222.788 27.488 222.572 28.976C222.38 30.44 222.236 31.544 222.14 32.288C221.852 32.624 221.336 32.792 220.592 32.792C220.448 32.792 220.376 32.756 220.376 32.684C220.688 29.252 220.844 26.684 220.844 24.98C220.844 21.212 220.172 19.328 218.828 19.328C217.796 19.328 216.74 20.204 215.66 21.956C214.604 23.708 213.728 26.18 213.032 29.372C212.936 30.02 212.816 30.992 212.672 32.288C212.384 32.624 211.856 32.792 211.088 32.792C210.968 32.792 210.908 32.756 210.908 32.684C211.22 29.252 211.376 26.684 211.376 24.98C211.376 21.212 210.704 19.328 209.36 19.328C208.496 19.328 207.596 19.976 206.66 21.272C205.724 22.544 204.896 24.38 204.176 26.78C203.864 28.436 203.372 30.164 202.7 31.964C202.364 32.3 202.004 32.468 201.62 32.468C201.26 32.468 201.08 32.42 201.08 32.324ZM250.664 18.788L249.584 21.272C248.192 21.536 246.86 21.668 245.588 21.668C244.316 21.668 243.212 21.632 242.276 21.56C242.252 21.896 242.24 22.376 242.24 23C242.24 25.352 242.576 27.296 243.248 28.832C243.944 30.344 244.976 31.1 246.344 31.1C247.736 31.1 248.852 30.596 249.692 29.588C250.532 28.556 251.276 26.9 251.924 24.62C251.972 24.428 252.056 24.332 252.176 24.332C252.512 24.332 252.884 24.5 253.292 24.836C252.188 30.404 249.68 33.188 245.768 33.188C241.616 33.188 239.468 29.204 239.324 21.236L238.604 21.092C238.388 21.02 238.172 20.78 237.956 20.372C237.764 19.94 237.656 19.604 237.632 19.364L237.812 19.148C238.46 19.244 238.976 19.304 239.36 19.328C239.48 15.632 239.696 12.872 240.008 11.048L239.144 10.832C238.928 10.688 238.748 10.46 238.604 10.148C238.484 9.812 238.424 9.572 238.424 9.428C238.424 9.284 238.448 9.212 238.496 9.212L241.052 9.428L243.68 7.628L244.616 8.204L244.184 9.464C247.832 9.416 250.82 8.804 253.148 7.628L253.76 8.564L252.572 11.66C250.892 11.876 249.296 11.984 247.784 11.984C246.272 11.984 244.892 11.9 243.644 11.732C243.068 14.18 242.66 16.748 242.42 19.436H243.248C245.84 19.436 248.204 19.016 250.34 18.176L250.664 18.788ZM267.44 15.008L266.288 18.212C265.184 17.492 264.092 17.132 263.012 17.132C261.236 17.132 260.348 17.816 260.348 19.184C260.348 20.12 261.092 21.212 262.58 22.46C263.228 22.988 263.864 23.54 264.488 24.116C265.976 25.484 266.72 26.864 266.72 28.256C266.72 29.336 266.312 30.368 265.496 31.352C265.04 31.88 264.296 32.3 263.264 32.612C262.256 32.948 261.092 33.116 259.772 33.116C258.452 33.116 257.264 32.948 256.208 32.612C256.088 32.516 255.944 32.3 255.776 31.964C255.632 31.604 255.56 31.352 255.56 31.208C255.56 31.064 255.584 30.992 255.632 30.992C255.704 30.992 255.884 31.028 256.172 31.1C256.892 31.292 257.804 31.388 258.908 31.388C260.012 31.388 260.936 31.148 261.68 30.668C262.448 30.188 262.832 29.576 262.832 28.832C262.832 28.088 262.52 27.356 261.896 26.636C261.296 25.916 260.624 25.268 259.88 24.692C259.16 24.116 258.488 23.408 257.864 22.568C257.264 21.704 256.964 20.84 256.964 19.976C256.964 19.208 257.216 18.524 257.72 17.924C258.248 17.3 258.848 16.784 259.52 16.376C261.152 15.416 263.528 14.732 266.648 14.324L267.44 15.008ZM280.045 15.548L278.965 18.068C277.789 18.308 276.589 18.44 275.365 18.464C274.909 24.848 274.309 29.456 273.565 32.288C273.277 32.624 272.773 32.792 272.053 32.792C271.885 32.792 271.801 32.756 271.801 32.684C272.329 29.276 272.593 25.964 272.593 22.748C272.593 21.572 272.557 20.12 272.485 18.392C271.213 18.248 270.217 18.08 269.497 17.888C269.353 17.816 269.197 17.576 269.029 17.168C268.885 16.736 268.801 16.4 268.777 16.16L268.921 15.944C269.857 16.136 271.009 16.232 272.377 16.232C272.233 13.592 272.101 11.816 271.981 10.904L272.845 10.292L275.761 11.84L275.545 16.052C276.817 15.908 278.197 15.548 279.685 14.972L280.045 15.548ZM293.275 18.752C293.011 19.856 292.483 20.852 291.691 21.74C290.899 22.628 289.999 23.336 288.991 23.864C287.143 24.824 285.523 25.436 284.131 25.7C284.227 26.9 284.539 27.788 285.067 28.364C285.595 28.94 286.231 29.228 286.975 29.228C289.087 29.228 290.995 27.452 292.699 23.9C292.723 23.756 292.843 23.684 293.059 23.684C293.275 23.684 293.599 23.852 294.031 24.188C292.999 26.684 291.727 28.748 290.215 30.38C288.727 31.988 287.239 32.792 285.751 32.792C284.263 32.792 283.099 32.252 282.259 31.172C281.443 30.092 281.035 28.64 281.035 26.816C281.035 24.296 281.719 21.968 283.087 19.832C283.831 18.68 284.875 17.672 286.219 16.808C287.587 15.92 289.207 15.26 291.079 14.828C292.543 15.332 293.275 16.64 293.275 18.752ZM289.063 17.672C288.055 17.672 287.011 18.26 285.931 19.436C284.851 20.588 284.251 22.196 284.131 24.26C286.123 23.732 287.647 22.964 288.703 21.956C289.783 20.924 290.323 19.916 290.323 18.932C290.323 18.572 290.215 18.272 289.999 18.032C289.783 17.792 289.471 17.672 289.063 17.672ZM298.235 6.368L301.115 7.736C301.379 9.512 301.511 11.444 301.511 13.532C301.511 15.596 301.391 17.804 301.151 20.156C300.647 24.908 299.927 29.024 298.991 32.504C298.847 32.672 298.595 32.816 298.235 32.936C297.875 33.056 297.587 33.116 297.371 33.116C297.155 33.116 297.047 33.056 297.047 32.936C298.175 28.136 298.739 23.396 298.739 18.716C298.739 14.036 298.271 10.112 297.335 6.944L298.235 6.368ZM315.017 15.512L317.933 14.252L318.797 14.756C318.005 17.084 317.609 19.772 317.609 22.82C317.609 24.116 317.717 25.916 317.933 28.22C318.149 30.524 318.353 32.084 318.545 32.9C318.545 32.972 318.365 33.008 318.005 33.008C317.645 33.008 317.297 32.84 316.961 32.504C316.193 30.728 315.581 28.112 315.125 24.656C314.117 27.056 312.905 29.012 311.489 30.524C310.097 32.036 308.837 32.792 307.709 32.792C305.549 32.792 304.469 31.436 304.469 28.724C304.469 27.164 304.781 25.664 305.405 24.224C306.029 22.784 306.869 21.524 307.925 20.444C310.037 18.308 312.401 16.664 315.017 15.512ZM309.653 28.472C310.421 28.472 311.273 27.86 312.209 26.636C313.169 25.388 314.021 23.636 314.765 21.38C314.741 21.044 314.729 20.396 314.729 19.436C314.729 18.476 314.741 17.768 314.765 17.312C312.701 18.488 311.033 19.748 309.761 21.092C308.489 22.412 307.853 23.972 307.853 25.772C307.853 27.572 308.453 28.472 309.653 28.472Z" fill="#C85A82"/>
</g>
<defs>
<filter id="filter0_d_1_22" x="0.160004" y="9.368" width="322.637" height="34.856" filterUnits="userSpaceOnUse" color-interpolation-filters="sRGB">
<feFlood flood-opacity="0" result="BackgroundImageFix"/>
<feColorMatrix in="SourceAlpha" type="matrix" values="0 0 0 0 0 0 0 0 0 0 0 0 0 0 0 0 0 0 127 0" result="hardAlpha"/>
<feOffset dy="4"/>
<feGaussianBlur stdDeviation="2"/>
<feComposite in2="hardAlpha" operator="out"/>
<feColorMatrix type="matrix" values="0 0 0 0 0 0 0 0 0 0 0 0 0 0 0 0 0 0 0.25 0"/>
<feBlend mode="normal" in2="BackgroundImageFix" result="effect1_dropShadow_1_22"/>
<feBlend mode="normal" in="SourceGraphic" in2="effect1_dropShadow_1_22" result="shape"/>
</filter>
<filter id="filter1_d_1_22" x="0.160004" y="6.368" width="322.637" height="34.856" filterUnits="userSpaceOnUse" color-interpolation-filters="sRGB">
<feFlood flood-opacity="0" result="BackgroundImageFix"/>
<feColorMatrix in="SourceAlpha" type="matrix" values="0 0 0 0 0 0 0 0 0 0 0 0 0 0 0 0 0 0 127 0" result="hardAlpha"/>
<feOffset dy="4"/>
<feGaussianBlur stdDeviation="2"/>
<feComposite in2="hardAlpha" operator="out"/>
<feColorMatrix type="matrix" values="0 0 0 0 0 0 0 0 0 0 0 0 0 0 0 0 0 0 0.25 0"/>
<feBlend mode="normal" in2="BackgroundImageFix" result="effect1_dropShadow_1_22"/>
<feBlend mode="normal" in="SourceGraphic" in2="effect1_dropShadow_1_22" result="shape"/>
</filter>
</defs>
</svg>
